/* XPM */
static char *_17270e798834ff6bde186d14ad55389[] = {
/* columns rows colors chars-per-pixel */
"64 64 48 1 ",
"  c #000000",
". c #03000B",
"X c #0E0E0E",
"o c #060015",
"O c #080215",
"+ c #09011C",
"@ c #1E1E1E",
"# c #0B0124",
"$ c #0E032B",
"% c #0F0032",
"& c #100133",
"* c #14033C",
"= c gray16",
"- c #333333",
"; c gray24",
": c #160244",
"> c #180446",
", c #17014C",
"< c #19024D",
"1 c #1B0255",
"2 c #1D015D",
"3 c #1E0062",
"4 c #200264",
"5 c #23036C",
"6 c #250274",
"7 c #26027A",
"8 c #2B0384",
"9 c #2C018C",
"0 c #2E0193",
"q c #31019B",
"w c #3300A5",
"e c #3501AC",
"r c #3600B0",
"t c #3B03BB",
"y c #3D02C3",
"u c #3D00C9",
"i c #3F00D1",
"p c #4000CF",
"a c #4201D3",
"s c #4500DC",
"d c #4500E1",
"f c #4801E3",
"g c #4700EC",
"h c #4900EE",
"j c #4B01F4",
"k c #4D00FE",
"l c #5100FF",
"z c None",
/* pixels */
"z;--------------------------------;-----------------------;---;z",
"zX                             .                       .      Xz",
"zX                                                            Xz",
"zX                                                            Xz",
"zX                                                            Xz",
"zX                                                            Xz",
"zX                                                            Xz",
"zX                                                            Xz",
"zX                                                            Xz",
"zX                                                            Xz",
"zX                                                            Xz",
"zX                                           .                Xz",
"zX                                                            Xz",
"zX                      o5ruuuuuuuyuuuuuuuuute6O              Xz",
"zX                   . ,gllllkkklllkkllkkllklklh4             Xz",
"zX                    5lkjkkkkkkkkkkkkjkkkkkkkkkl6 .          Xz",
"zX                   8lkkkkkkkkkkkkkkkkkkkkkkkkkkk& .         Xz",
"zX                 .wlkkkkkkkkkkkkkkkkkkkkkkkkkkkle           Xz",
"zX              . oykkkkkkkkkkkkkkkkkkkkkkkkkkkkkkhO          Xz",
"zX               Opljkkkkkkkkkkkkkkkkkkkkkkkkkkkkkk$          Xz",
"zX              #skkkkkkkkkkkkkkkkkkkkkkkkkkkkkkkkk$ .        Xz",
"zX           . :hkkkkkkkkkkkkkkkkkkkkkkkkkkkkkkkkkf.          Xz",
"zX            2jkkkkkkkkkkkkkkkkkkkkkkkkkkkkkkkkkl0           Xz",
"zX           6ljkkkkkkkkkkkkkkkkkkkkkkkkkkkkkkkkkf+           Xz",
"zX          7lkkkkkkkkkkkkjkkkkkkkkkjkkkkkkkkkkkj:            Xz",
"zX         *lkklkklkklklkllllllllllllkkkkkkkkkkk1 .           Xz",
"zX         qlkt<3,2113,41111111111148hkkkkkkkkk5 .            Xz",
"zX         wkl5 .                    #skkkkkkk0               Xz",
"zX       . 8lkgwwwwwwwwwwwwwwwwwwwwq% 1lkkkjlw                Xz",
"zX         #hkkllkllllllllllllllllllp ohkkkkt. :#             Xz",
"zX          >flllllllllllllllllllllly +jkklpo >lf#            Xz",
"zX           O2675756657576575765756# 3lkks+ %hkkso           Xz",
"zX                                   *gkkh$ #fkkkl7 .         Xz",
"zX           >0899990808999999999999rjkkh* Oplkkkks.          Xz",
"zX          &klllllllllllllllllllllllklh* .tlkkkkkj#          Xz",
"zX          &llllllllllllllllllllllllla& .rkkkkkkkk$          Xz",
"zX           199980808008089080809806*. .rlkkkkkkkjO          Xz",
"zX                                    .<akkkkkkkkky           Xz",
"zX           .$>>*<>>>*<>>>><*<>><*128akkkkkkkkkkl2 .         Xz",
"zX          $ulllklllkkllllllkllllklllkkkkkkkkkklw            Xz",
"zX         Odlklllklkllklklklklllklkkjkkkkkkkkklr             Xz",
"zX         6lkjityytytyytiiippiipippglkkkkkkkkkt.             Xz",
"zX         qll6 X    X              .8lkkkkkkkao              Xz",
"zX         qlle##$$$$$$$$$$$$$$$$$$$  0lkkkklf#               Xz",
"zX         1ljkkjkkkjkkjkkkkkkkkkkkl9 $kkkkkh%                Xz",
"zX          wllllklklkklkkkkkkkkkkkla Ogkkkk: .               Xz",
"zX           5yfddfddfddsddssddddddd2 *lkkk2                  Xz",
"zX                      .   .         rljk6 .                 Xz",
"zX           .++oO+O+O++O+O+OO#O+OOO&tkkl9                    Xz",
"zX          .ukjjjkhkhkjhjhkjjjjjjkkkljlq                     Xz",
"zX          >lkkkkkkkkkkkklkkkkkklkkklk0                      Xz",
"zX          .thghhjjhhhhhhhhhhhjhjhhsr* .                     Xz",
"zX            OOooooooooOOoooooooooo.                         Xz",
"zX                                                            Xz",
"zX                  .         .                               Xz",
"zX                        .                                   Xz",
"zX                                                            Xz",
"zX                                                            Xz",
"zX                                                            Xz",
"zX                                                            Xz",
"zX                                                            Xz",
"zX                                                            Xz",
"z=@@@@@@@@@@@@@@@@@@@@@@@@@@@@@@@@@@@@@@@@@@@@@@@@@@@@@@@@@@@@=z",
"zzzzzzzzzzzzzzzzzzzzzzzzzzzzzzzzzzzzzzzzzzzzzzzzzzzzzzzzzzzzzzzz"
};
