/* XPM */
static char *_03ad1987b114a2dec7755c4613399d3[] = {
/* columns rows colors chars-per-pixel */
"16 16 55 1 ",
"  c black",
". c #010003",
"X c gray2",
"o c #070707",
"O c #03000B",
"+ c gray3",
"@ c #0A090B",
"# c #0E0E0E",
"$ c #040010",
"% c #060015",
"& c #09001E",
"* c #101010",
"= c #0A0021",
"- c #0B0024",
"; c #0D002A",
": c #0D002B",
"> c #150047",
", c #1D0062",
"< c #1F0064",
"1 c #200068",
"2 c #250073",
"3 c #250075",
"4 c #240077",
"5 c #280083",
"6 c #2A0089",
"7 c #2B008F",
"8 c #2D0193",
"9 c #2D0095",
"0 c #2F0198",
"q c #2E0099",
"w c #2F009C",
"e c #30009E",
"r c #3100A3",
"t c #3200A7",
"y c #3300A9",
"u c #3400AC",
"i c #3600B3",
"p c #3700B5",
"a c #3900BB",
"s c #3C00C3",
"d c #3C00C4",
"f c #3F00D1",
"g c #4100D0",
"h c #4200D6",
"j c #4300D8",
"k c #4500DF",
"l c #4500E0",
"z c #4700E3",
"x c #4900E9",
"c c #4900F6",
"v c #4F00F7",
"b c #4E00FE",
"n c #5000FB",
"m c #5400FF",
"M c #5700FF",
/* pixels */
"#XXXXX++X+XXoXX*",
"+              o",
"+              +",
"+    &eiiiit=  +",
"+   :lmbbmnmi  +",
"+  >vmbmbbcmy  +",
"@ -ltrttrgmg$  +",
"+ %e999q52l<:  +",
"+  1r900qu,xs  +",
"+  <088897hm0  +",
"+ :h900r9dmdO  +",
"+ O6989052l%   +",
"+  2pyyuua:    +",
"+  =---&-O .   +",
"+              +",
"*+++@@@@@+++@++*"
};
