/* XPM */
static char *_9e51fe705bd4953a4313610e06da14a[] = {
/* columns rows colors chars-per-pixel */
"128 128 72 1 ",
"  c #000000",
". c #04010C",
"X c #060113",
"o c #0A0515",
"O c #0C0816",
"+ c #07001B",
"@ c #0C051C",
"# c #151515",
"$ c #1A1A1A",
"% c #0B0123",
"& c #0E022A",
"* c #10042C",
"= c #0F0031",
"- c #120333",
"; c #13023C",
": c #180B38",
"> c gray14",
", c #282828",
"< c #3A3A3A",
"1 c #150042",
"2 c #180346",
"3 c #1A0945",
"4 c #17014A",
"5 c #19024C",
"6 c #1B084A",
"7 c #190051",
"8 c #1E0951",
"9 c #1D015B",
"0 c #21075C",
"q c #1E0161",
"w c #210464",
"e c #23036C",
"r c #290B6F",
"t c #250373",
"y c #2A0A73",
"u c #27027A",
"i c #29037E",
"p c #2C097B",
"a c #454545",
"s c gray32",
"d c #2B0384",
"f c #2C0880",
"g c #2D028B",
"h c #31088D",
"j c #2D0193",
"k c #2F009A",
"l c #300393",
"z c #31029B",
"x c #3504A4",
"c c #3807A5",
"v c #3501A9",
"b c #3804AD",
"n c #3700B0",
"m c #3A02B4",
"M c #3B01BC",
"N c #3F08BA",
"B c #4007BF",
"V c #3E02C4",
"C c #3F00CC",
"Z c #4206C7",
"A c #4308C7",
"S c #4102CD",
"D c #4302D4",
"F c #4602DC",
"G c #4601E3",
"H c #4903E5",
"J c #4701E9",
"K c #4A03EC",
"L c #4B01F3",
"P c #4D00FE",
"I c #5100FF",
"U c None",
/* pixels */
"UUUUUUUUUUUUUUUUUUUUUUUUUUUUUUUUUUUUUUUUUUUUUUUUUUUUUUUUUUUUUUUUUUUUUUUUUUUUUUUUUUUUUUUUUUUUUUUUUUUUUUUUUUUUUUUUUUUUUUUUUUUUUUUU",
"UU<>,,,,,,,,,,,,,,,,,,,,,,,,,,,,,,,,,,,,,,,,,,,,,,,,,,,,,,,,,,,,,,,,,,,,,,,,,,,,,,,,,,,,,,,,,,,,,,,,,,,,,,,,,,,,,,,,,,,,,,,,,<UU",
"UU#                                                                                                                          #UU",
"UU#                          .                       .                       .                       .                       $UU",
"UU#                                                                                                                          #UU",
"UU#                                                                                                                          #UU",
"UU#                                                                                                                          #UU",
"UU#                                                                                                                          #UU",
"UU#                                                                                                                          #UU",
"UU#                                                                                                                          #UU",
"UU#                                                                                                                          #UU",
"UU#                                                                                                                          #UU",
"UU#                                                                                                                          #UU",
"UU#                                                                                                                          #UU",
"UU#                                                                                                                          #UU",
"UU#                                                                                                                          #UU",
"UU#                                                                                                                          #UU",
"UU#                                                                                                                          #UU",
"UU#                                                                                                                          #UU",
"UU#                                                                                                                          #UU",
"UU#                                                                                                                          #UU",
"UU#                                                                                                                          #UU",
"UU#                                                                                                                          #UU",
"UU#                                                                                                                          #UU",
"UU#                                                                        .              .                                  #UU",
"UU#                                                                                                                          #UU",
"UU#                                                X2ixkkkkkzkkkkkzzkkkkkkkkkkkkkkzzkkjkjre7%                                #UU",
"UU#                                              ;vGIIIPIIPPIIIIIIIPIIPPIIIIIIPPIIIPIIIPIIIILm7                              #UU",
"UU#                                            XzPPPPPPLPPLPPPPPPPPPPLPPPPPPPLPPPPPPPLPPPPPPPPIS;                            #UU",
"UU#                                           2FIPPPPPPPPPPPPPPPPPPPPPPPPPPPPPPPPPPPPPPPPPPPPLPPLw                           #UU",
"UU#                                          7KPPPPPPPPPPPPPPPPIPPPPPPPPPPPPPPPPPPPPPPPPPPPPPPPPPId                          #UU",
"UU#                                         wIPPPPPPPPPPPPPPPPPPPPPPPPPPPPPPPPPPPPPPPPPPPPPPPPPPPPIw                         #UU",
"UU#                                        dIPPPPPPPPPPPPPIPPPPPPPPIPPPPPPPPPPPPPPPPPPPPPPPPPIPPPPPH%                        #UU",
"UU#                                      .lIPPPPPIPPPPPPPPPPPIPPPPPPIPPPPPIPPPPPPPPPPPIPPPPPPPPPPPPPb                        #UU",
"UU#                                     .mIPPPPPPPPPPPPPPPPPPPPPPPPPPPPPPPPPPIIPIPIPPPPPPPPIPPPPPPPPP;                       #UU",
"UU#                                    &DPPPPPPPPPPPPPPIIPPPPPPPPPPPPPIPPPPPPPPPPPPPPPPPPIPPPPPPPPPPIh                       #UU",
"UU#                                   ;FIPPPPPPPPPPPPIPPPPPPPPIPIPPPPPPPPPPPPPPPPPPPPPPPPPPPPPIPPPPPPG+                      #UU",
"UU#                                  7PPPPPPPPPPPPPIPPPPPPPPPPPPPPPPPPPPIPPPPIPPPPPIPPIPPPPPPPPPPPPPPP=                      #UU",
"UU#                                 qLPPPPPPPPPPPPPPPPPPPPPPIPPPPPPPIPPPPPPPPPPPPPPPPPIPPPIPPPIPPPPPPI-                      #UU",
"UU#                                wIPPPPPPPPPPPPPIPPPPPPPIPPPPPPPPIPPPPPIPPPPPPPPPPPPPPPPPPPPPPPPPPPI7                      #UU",
"UU#                               iPPPPPPPPPPIPPIPPPPPPIPPPPPPPPPPPIPPPPPPPPPPPPPIPPPPPPPPPPPPPPPPPPPP3                      #UU",
"UU#                              hIPPPPPPPPPPPPPPPPPPPPPPPPPPPIPPPPPPPPPIPPPIPIPPPPPPPPIPPIPPPPPPPPPPI7                      #UU",
"UU#                            .mIPPPPPPPPPPPIPPPPPPIPPPIPPPPPPPPPPPPPPIPPPPPPPPPPPIPPPPPPIPPIPPPPPPPL*                      #UU",
"UU#                           +ZIPPPPPIPPPPPPPPPPPPIPPPPPPIPPPPPIPPPPPPPPPPPPPPPPPPPPPPPPPPPPPPPPPPPIm                       #UU",
"UU#                          *FIPPPPPPPPPPPPPPPPPPPPPPPPPPPPPPIPPPPPPPIPPPPPIPPPPPPIIPPPPPPPPPPPPPPPIw                       #UU",
"UU#                         5HIPPPPPPPPPPPPPPPIPPPPPIPPPPPPIPPPPPIPPPPPPPPPIPPPPPPPPPPPPPIPPPPPPPPPPF.                       #UU",
"UU#                        0LPPPPPPPPIPPIPIPPPPPPPPPPPPPPPPPPPPPPPPPIPPPPPPPPPPPPPPPPPPPPPPPPPPPPPPIr                        #UU",
"UU#                       uIPPPPPPPPPPPPPPPPPPPPIPPPPPPIPPPPPPPPPPPPPPPPPIPPPPPPIPPPPPPIPPPPPIPPPPIc                         #UU",
"UU#                      dILPPPPPPPPPPPPPPPPPPPPPPPPPPPPPPPPPPPPPPPPPPPPPPPPPPPPPPPIPPPPPPIPPPPPPPZo                         #UU",
"UU#                     tIPPPPPPPPPPPPPPPPPPPPPPPPPPPPPPPPPPPPPPPPPPPPPPPPPPPPPPPPPPPPPPPPPPPPPPPF%                          #UU",
"UU#                    =LPPPPPPPPPPLPPPPPLPPPPPPLPPLPPPPPLPPPPPPLPPPPPPPPPPPPPPPPPPPPPPPPPPPPPPPH*                           #UU",
"UU#                    bPLPPPPPIPIIIIPIPIIPPIIPPIIIIIIPIPIIPIIPIIIIIIIIPPPPPPPPPIPPPPPIPPPPPPPPL:                            #UU",
"UU#                   *LPPPPPKvjVmjkjSvjkxCxjjvSzjzccccccccccccccccccccCDPPPPPPPPPPPPPPPPIPPPPI9                             #UU",
"UU#                   7IPPPPL-                                           -mIPPPPPPPPPPPPPPPPLPw                              #UU",
"UU#                   8IPPPIM  .  .    ..   .   . .  .  .  .   .  .  .    .hPPPPPPPPPPPPPPPPIj                               #UU",
"UU#                   5IPPPPDo                                              iIPPPPPPPPPPPPPIm.                               #UU",
"UU#                   ;IPPPPPN27777767777777577777775767777767777777752@.   .DPPPPPPPPPPPPIM.                                #UU",
"UU#                   XDPPPPPPPIIIIPIPPPIPIIPPPIPIIPIPPIPIIPIPPPIPPPIIPPz    eIPPPPPPPPPPPSX                                 #UU",
"UU#                    wIPPPPPPPPPPPPPPPPPPPPPPPPPPPPPPPPPPPPPPPPPPPPPPPIe   %LPPPPPPPPPPG&                                  #UU",
"UU#                     VILPPPPPPPPPPPPPPPPPPPPPPPPPPPPPPPPPPPPPPPPPPPPLIm   .FPPPPPPPPPH;    ;S8                            #UU",
"UU#                     %DIPPPPPPPPPPPPPPPPPPPPPPPPPPPPPPPPPPPPPPPPPPPPPPV   &KPPPPPPPPL1    +FIIz                           #UU",
"UU#                      XzPIIIPPPPPPPPIPPPPPPPPPPPPPPPIPPPIPPPIPPPPPIPII7 . ;PPPPPPPPIe    oDIPPIh                          #UU",
"UU#                        -lNZDJAAAFJAAAGHAAAHFZAAKDAAAJDAADKAAADGAAADF0    tIPPPPPPIe    .mIPPPLIg                         #UU",
"UU#                            .+   .o   .X   O.   o.  .+   .o   .+   ..    oFPPPPPPIi     vPPPPPPPI1                        #UU",
"UU#                                                                        .mIPPPPLIl     lIPPPPPPPPM                        #UU",
"UU#                                                                       XmPPPPPPIm     iIPPPPPPPPPP7                       #UU",
"UU#                        .&%%%%%%%%%+%%%%%%%%%%%%%%%+%%%%%%%%%%%%%%%%%2iGIPPPPLIMX  . ePPPPPIPPPPPIb                       #UU",
"UU#                       -DLKKLLLLLLLLLLLKLLLLLLLLLLLLLLLLKLLLLKLLLLJLLPIPPPPPLIB.    6PPPPPPPPPPPPPF.                      #UU",
"UU#                      %KIPPPPPPPPPPPPPPPPPPPPPPPPPPPPPPPPPPPPPPPPPPPPPPPPPPPPZX    ;KPPPPPPPPPPPPPP&                      #UU",
"UU#                      jIPPPPPPPPPPPPPPPPPPPPPPPPPPPPPPPPPPPPPPPPPPPPPPPPPPLINo    %GPPPPPPPPPPPPPPP;                      #UU",
"UU#                      dILPPPPPPPPPPPPPPPPPPPPPPPPPPPPPPPPPPPPPPPPPPPPPLPPPIv.    %FPPPPPPPPIPPPPPPI7                      #UU",
"UU#                      -LPPPPPPPPPPPPPPPPPPPPPPPPPPPPPPPPPPPPPPPPPPPPPPPIIFt     +DIPPPPPPPPPPPPPPPI6                      #UU",
"UU#                       9JKKLPLKKKPKKKLPKKKKPKKKLPKKKLPKKKPPKKKILLKKPLGSl2X     +DIPPPPIPPPPPPPPPPPP=                      #UU",
"UU#                        .@OO;*o@@;*O@@1*O#@1@Oo*1O@O-;OOO--O@O;*O@O1&X        =FIPPPPPPPPPPPIPPPPPJ+                      #UU",
"UU#                                                                        .    eKPPPPPPPPPPPPPPPPPPIm                       #UU",
"UU#                          .    .   .  .  . .  .   .    .   .     .        XqDIPPPPPPPPPPPPIPPPPPPIt                       #UU",
"UU#                                                                       .=gGPIPPPPPPPPPPPPPPPPPPPPJ%                       #UU",
"UU#                        X;erdxyrrhxryrlzryrzhryyzhryyvprrpxpryhxyyrhvvbDLIPPPPPPPPPPPPPPIPPPPPPPIe                        #UU",
"UU#                       qFIIPIIIIIIPIIPIIPIIPIIIPIIIIIIIIPIIPIIPIIPIIIPIPPPPPPPPPPPIPPPPPPPPPPPLIC.                        #UU",
"UU#                      zIPPPLPPPPPLPPPPLPPPPLPPPPPLPPPPPLPPPPPLPPPLPPPLPPPPPPPPPPPPPPIPPPPPPPPPPC+                         #UU",
"UU#                     gIPPPPPPPPPPPPPPPPPPPPPPPPPPPPPPPPPPPPPPPPPPPPPPPPPPPPPPPPPPPPPIPPPPPPPPID+                          #UU",
"UU#                    7IPPPPPPPPLPPPPLPPPPPPLPPPPPLPPPLPPPLPPLPPPPLPLPPPPPPPPPPPPPPPPPPPPPPPPPPF@                           #UU",
"UU#                    mPPPPPPIIIIPIIIIIPIIIIIPIIIIPPPIPIPPIIPIPPPIIPPPIIPPPPPPPPPPIPPPPPPPPPPPJ=                            #UU",
"UU#                   &LPPPPPGbzyprlzyyyzhryyvdrypvbvvvvvvvvvvvvvvvvvvvvMLPPPPPPPPPPPPPPPPPPPPL:                             #UU",
"UU#                   1IPPPPL=                                           *vIPPPPIPPPIPPPPPPPPP9                              #UU",
"UU#                   6IPPPPM . . . . .   .  .. .    .    .   .  .    .    qLPPPPPPPPPPPPPPPIe                               #UU",
"UU#                   5IPPLPF+                                              dIPPPPPPPPPPPPPIg                                #UU",
"UU#                   =PPPPPPC6666666666666666666666666666666666666663w2     SIPPPPPIPPPPPIl                                 #UU",
"UU#                    SPPPPPPIIIPIIIPIIIIPIIIIIIIIPIIPIIPIIIPIIIPIIPIIPmX   wIPPPPPPPPPLIb                                  #UU",
"UU#                    qIPPPPPPPPPPPPPPPPPPPPLPPPPPLPPPLPPPPPPPPPPPPPPPLId   *PPPPPPPPPPPVX                                  #UU",
"UU#                    .MILPPPPPPPPPPPPPPPPPPPPPPPPPPPPPPPPPPPPPPPPPPPPPIM   .GPPPPPPPPISo                                   #UU",
"UU#                     XVIPPLPPLPPPLPPPPPPPLPPPPPPPPPPPLPPPLPPPLPPPLPPPIv   +KPPPPPPPPG&                                    #UU",
"UU#                      .jPIIPPIPIPPPPPIPPPPPPIPPPPIPPPIPIPPPPPPIPPPIPII; . ;PPPPPPPPK*                                     #UU",
"UU#                        %exSSSCSDSSDSSCDCSSCDSSDCSCDDSCSDDSSDDSSCCDSb;    dIPPPPPPL6                                      #UU",
"UU#                             .   .  .   . .   . .    .     .    .  .     &LPPPPPPI9                                       #UU",
"UU#                         .                                              .NPPPPPPIu                                        #UU",
"UU#                                                                       =VPPPPPPIg                                         #UU",
"UU#                        X@@&2@%@-3@@O:;@%@;-@@@1:@@%2*%@*3@@@*3*@@-;%5lLPPPPPLIz                                          #UU",
"UU#                       wGLLPPLLLLPLPLLILLLPPLLLILLLLILLLLPPLLLILLLPPPIIPLPPPPIM.                                          #UU",
"UU#                      -IPPPPPPPPPPPPPPPPPPPPPPPPPPPPPPPPPPPPPPPPPPPPPPPPPPPPIM.                                           #UU",
"UU#                      jIPPPPPPPPPPPPPPPPPPPPPPPPPPPPPPPPPPPPPPPPPPPPPPPPPPPIM.                                            #UU",
"UU#                      dILPPPPPPPPPPPPPPPPPPPPPPPPPPPPPPPPPPPPPPPPPPPPPPLPIPg                                              #UU",
"UU#                      =PIPPPPPPPPPPPPPPPPPPPPPPPPPPPPPPPPPPPPPPPPPPPPPIIPb-                                               #UU",
"UU#                       7VJLLLLLLLLLLLLLLLLLLLLLLLKKLLLLLLLLLLLLLLLLLLSmj-                                                 #UU",
"UU#                         ++++++++++++++++++++++++++++++++++++++++++++                                                     #UU",
"UU#                                                                                                                          #UU",
"UU#                                                                                                                          #UU",
"UU#                                                                                                                          #UU",
"UU#                                                                                                                          #UU",
"UU#                                                                                                                          #UU",
"UU#                                                                                                                          #UU",
"UU#                                                                                                                          #UU",
"UU$                                                                                                                          #UU",
"UU#                                                                                                                          #UU",
"UU#                                                                                                                          #UU",
"UU$                                                                                                                          #UU",
"UU#                                                                                                                          #UU",
"UU#                                                                                                                          #UU",
"UU#                                                                                                                          #UU",
"UU#                                                                                                                          #UU",
"UU#                                                                                                                          #UU",
"UU#                                                                                                                          #UU",
"UU#                                                                                                                          #UU",
"UU#                                                                                                                          #UU",
"UU$ . . . .    .. # . . #...  ..  #  . .#   . .     . . . .    .. # . . #...  ..  #  . .#   . . #... .. . #  .  . . ...# ..  $UU",
"UUsaaaasaaaasasaaaaaaaaaaaaaaaaaasaaaaaaaaasaaaasassaaaaaaaasasaaaaaaaaaaaaaaaaaasaaaaaaaaasaaaaaaaaaaaaaaaasaasaaaaaaaaaaaaasUU",
"UUUUUUUUUUUUUUUUUUUUUUUUUUUUUUUUUUUUUUUUUUUUUUUUUUUUUUUUUUUUUUUUUUUUUUUUUUUUUUUUUUUUUUUUUUUUUUUUUUUUUUUUUUUUUUUUUUUUUUUUUUUUUUUU",
"UUUUUUUUUUUUUUUUUUUUUUUUUUUUUUUUUUUUUUUUUUUUUUUUUUUUUUUUUUUUUUUUUUUUUUUUUUUUUUUUUUUUUUUUUUUUUUUUUUUUUUUUUUUUUUUUUUUUUUUUUUUUUUUU"
};
