/* XPM */
static char *a2e0e878280c474ba29cc5f5e3aeaacd[] = {
/* columns rows colors chars-per-pixel */
"32 32 185 2 ",
"   c black",
".  c #000100",
"X  c #000001",
"o  c #010101",
"O  c #000002",
"+  c #000003",
"@  c #010003",
"#  c #010004",
"$  c #020006",
"%  c #040209",
"&  c #04000D",
"*  c #04000E",
"=  c #04000F",
"-  c #05000F",
";  c #050010",
":  c #060014",
">  c #060016",
",  c #070116",
"<  c #080215",
"1  c #080217",
"2  c #090218",
"3  c #08001B",
"4  c #09011B",
"5  c #09001C",
"6  c #09011C",
"7  c #09001D",
"8  c #0A011F",
"9  c #111111",
"0  c gray9",
"q  c #181818",
"w  c #191919",
"e  c #1E1E1E",
"r  c #0A0020",
"t  c #0B0023",
"y  c #0B0025",
"u  c #0D0126",
"i  c #0C0027",
"p  c #0D0127",
"a  c #0C0028",
"s  c #0D0128",
"d  c #0D002A",
"f  c #0D002C",
"g  c #0E002D",
"h  c #0E002F",
"j  c #0F0130",
"k  c #100231",
"l  c #100232",
"z  c #100233",
"x  c #110134",
"c  c #100035",
"v  c #100036",
"b  c #110037",
"n  c #12003A",
"m  c #12003B",
"M  c #13003D",
"N  c gray15",
"B  c #160048",
"V  c #170049",
"C  c #1A014D",
"Z  c #1A014F",
"A  c #1A0157",
"S  c #1C005A",
"D  c #1C005B",
"F  c #1C005C",
"G  c #1D015E",
"H  c #1D0060",
"J  c #1E0062",
"K  c #1E0065",
"L  c #1E0066",
"P  c #1F0066",
"I  c #1F0067",
"U  c #200165",
"Y  c #21006D",
"T  c #21006E",
"R  c #22006F",
"E  c #220170",
"W  c #230172",
"Q  c #250074",
"!  c #240176",
"~  c #240077",
"^  c #250177",
"/  c #250178",
"(  c #26007D",
")  c #27017F",
"_  c #2A0185",
"`  c #290086",
"'  c #290087",
"]  c #290088",
"[  c #2A0088",
"{  c #2A008A",
"}  c #2B008A",
"|  c #2D008D",
" . c #2F0191",
".. c #2D0094",
"X. c #2E0196",
"o. c #2F0098",
"O. c #2F0199",
"+. c #2F019A",
"@. c #30019B",
"#. c #30029A",
"$. c #30019C",
"%. c #3100A0",
"&. c #3200A6",
"*. c #3400A7",
"=. c #3300AB",
"-. c #3400AB",
";. c #3600AE",
":. c #3601B0",
">. c #3600B2",
",. c #3701B3",
"<. c #3701B4",
"1. c #3801B5",
"2. c #3900B8",
"3. c #3901B8",
"4. c #3A00BD",
"5. c #3B00BF",
"6. c #3B01BF",
"7. c #3F00CE",
"8. c #3E00CF",
"9. c #3F00D2",
"0. c #3F00D3",
"q. c #4000CF",
"w. c #4000D3",
"e. c #4000D4",
"r. c #4300D6",
"t. c #4300DC",
"y. c #4500E2",
"u. c #4401E2",
"i. c #4600E2",
"p. c #4600E4",
"a. c #4601E4",
"s. c #4601E5",
"d. c #4700E6",
"f. c #4600E7",
"g. c #4600EC",
"h. c #4700EC",
"j. c #4700ED",
"k. c #4900ED",
"l. c #4800EE",
"z. c #4B00F1",
"x. c #4A00F6",
"c. c #4C00F5",
"v. c #4E00F6",
"b. c #4B00F9",
"n. c #4B00FA",
"m. c #4B00FB",
"M. c #4C00F8",
"N. c #4C00FB",
"B. c #4D00FB",
"V. c #4E00FA",
"C. c #4E00FB",
"Z. c #4B00FC",
"A. c #4C00FC",
"S. c #4C00FD",
"D. c #4D00FD",
"F. c #4C00FE",
"G. c #4D00FE",
"H. c #4C00FF",
"J. c #4D00FF",
"K. c #4E00FE",
"L. c #4F00FE",
"P. c #4E00FF",
"I. c #4F00FF",
"U. c #5000FB",
"Y. c #5001FB",
"T. c #5400FB",
"R. c #5000FD",
"E. c #5100FD",
"W. c #5100FE",
"Q. c #5101FE",
"!. c #5000FF",
"~. c #5100FF",
"^. c #5101FF",
"/. c #5200FE",
"(. c #5200FF",
"). c #5300FF",
"_. c #5600FD",
"`. c #5500FE",
"'. c #5400FF",
"]. c #5500FF",
"[. c #5600FF",
"{. c #5700FF",
"}. c #5800FF",
"|. c #5B00FF",
" X c None",
/* pixels */
"N 9 9 9 9 9 9 9 9 9 9 9 9 9 9 9 9 9 9 9 9 9 9 9 9 9 9 9 9 9 9 N ",
"0                                                             q ",
"q                                                             0 ",
"0                                                             0 ",
"0                         # #   # # #   # #   #               0 ",
"0                                                             0 ",
"0                       i H L L U I I L L L G i               0 ",
"0                 #   Y N.).).).).).).).).).).L./             0 ",
"0               #   { ).F.n.n.F.n.n.F.n.n.n.n.F.).M           q ",
"0               # &.).n.F.F.F.F.F.F.F.F.F.F.F.n.).{   #       0 ",
"0             = 3.).n.F.F.F.F.F.F.F.F.L.L.F.L.n.)._   #       0 ",
"0           5 q.L.n.L.F.F.F.F.F.F.F.F.F.F.F.F.F.N.j           0 ",
"0         = r.).F.L.L.F.L.L.L.L.F.L.).F.F.F.F.).U             0 ",
"0     #   Z ].G 7 d i d i i i d d 5 G n.F.n.).(   #           0 ",
"0         g L.p.9.0.0.r.9.0.0.0.7.0.j ` ).).X.# :             0 ",
"0           V :.<.:.<.<.<.<.<.<.:.7.d ` }.*.  7.4.            0 ",
"q           = x x x x x z x z z b g Y ).4.  ;.).).S   #       0 ",
"0       #    .|.).].].].].].].].].].].:.  O.).x.L.|   #       0 ",
"0           = k k k k k k k l l k x r = %.).n.n.).!           0 ",
"0           b X.$.#.#.$.$.O.+.+.#.O.=.k.).n.L.L.p.5           0 ",
"0         i v.x.y.p.p.p.p.h.h.h.h.h.Y.).F.F.L.z.x             0 ",
"0     #   C ].A % 2 < , 1 4 6 6 5 , i y.L.n.N.V   #           0 ",
"0         , y.).).L.).).).^.Q.Q.Y.}.V ! ).L.F   #             0 ",
"0           : S L L L L L L L L L L = -.].E   #               0 ",
"0           b _ ! ! ! / ! / ! / / W 3.}.{   #                 0 ",
"0       #   _ ).N.L.L.L.L.L.L.L.L.).k.Y                       0 ",
"0             : = = * : = : * = = = #                         0 ",
"0                                     #                       0 ",
"0                   #     #                                   0 ",
"0                                                             0 ",
"q               o o o o o o o o o o o o o o o o # o       #   w ",
" Xe e e N e e e e e e e e e e e e e e e e e e e e e e e e e e  X"
};
